<?xml version="1.0" encoding="utf-8"?>
<svg version="1.1" id="Слой_1" xmlns="http://www.w3.org/2000/svg" xmlns:xlink="http://www.w3.org/1999/xlink" x="0px" y="0px"
	 width="580px" height="1000px" viewBox="0 0 580 1000" style="enable-background:new 0 0 580 1000;" xml:space="preserve">
<path class="shape-o" d="M580,724.7c0,151.8-126.6,275.3-282.3,275.3h-15.4C126.6,1000,0,876.5,0,724.7v-49.2h166v49.2
	c0,62.5,52.1,113.4,116.2,113.4h15.4c64.1,0,116.2-50.9,116.2-113.4v-49.2h166V724.7 M0.2,648h164.3V352H0.2V648z M413.5,648h166.3
	V352H413.5V648z M166,324.5v-49.1c0-62.5,52.1-113.4,116.2-113.4h15.4c64.1,0,116.2,50.9,116.2,113.4v49.1h166v-49.1
	C580,123.5,453.4,0,297.7,0h-15.4C126.6,0,0,123.5,0,275.3v49.1H166z"/>
</svg>