<?xml version="1.0" standalone="no"?>
<!DOCTYPE svg PUBLIC "-//W3C//DTD SVG 20010904//EN"
 "http://www.w3.org/TR/2001/REC-SVG-20010904/DTD/svg10.dtd">
<svg version="1.0" xmlns="http://www.w3.org/2000/svg"
 width="700.000000pt" height="700.000000pt" viewBox="0 0 700.000000 700.000000"
 preserveAspectRatio="xMidYMid meet">
<metadata>
Created by potrace 1.11, written by Peter Selinger 2001-2013
</metadata>
<g transform="translate(0.000000,700.000000) scale(0.100000,-0.100000)"
fill="#000000" stroke="none">
<path d="M1823 6957 c-6 -10 -6 -6908 1 -6914 6 -6 1750 -5 1856 1 41 3 102 8
135 12 33 4 71 8 85 9 160 16 420 97 570 178 163 88 332 238 431 383 110 161
198 376 234 574 4 19 8 40 9 45 9 35 26 175 31 255 5 74 6 884 1 935 -3 22 -7
74 -11 114 -3 41 -8 77 -10 80 -1 4 -6 28 -9 55 -40 293 -173 580 -359 769
-100 103 -194 170 -330 237 -48 24 -86 44 -85 46 2 1 30 16 63 34 197 105 358
273 459 475 77 155 134 350 152 520 3 28 9 75 14 105 9 60 6 756 -4 830 -3 25
-9 59 -12 75 -3 17 -8 48 -11 70 -8 64 -51 224 -83 305 -143 375 -417 617
-823 729 -180 49 -323 69 -552 77 -249 9 -1746 10 -1752 1z m1792 -1003 c207
-70 322 -253 342 -544 9 -132 8 -623 -1 -710 -10 -96 -55 -247 -93 -311 -76
-130 -189 -205 -363 -240 -30 -6 -177 -12 -326 -13 l-271 -3 0 924 0 925 326
-4 c294 -4 332 -6 386 -24z m-45 -2812 c121 -25 125 -26 199 -59 67 -31 171
-131 204 -198 52 -105 84 -234 94 -380 7 -92 9 -790 3 -925 -10 -238 -108
-434 -250 -501 -105 -50 -123 -52 -531 -56 l-386 -4 0 1065 c0 966 2 1065 16
1068 42 9 602 0 651 -10z"/>
</g>
</svg>
